<?xml version="1.0" encoding="UTF-8" standalone="no"?>
<svg
   version="1.1"
   viewBox="0 0 698 245"
   id="svg343"
   sodipodi:docname="2024.svg"
   inkscape:version="1.2.1 (9c6d41e, 2022-07-14)"
   xmlns:inkscape="http://www.inkscape.org/namespaces/inkscape"
   xmlns:sodipodi="http://sodipodi.sourceforge.net/DTD/sodipodi-0.dtd"
   xmlns="http://www.w3.org/2000/svg"
   xmlns:svg="http://www.w3.org/2000/svg">
  <defs
     id="defs347" />
  <sodipodi:namedview
     id="namedview345"
     pagecolor="#ffffff"
     bordercolor="#000000"
     borderopacity="0.25"
     inkscape:showpageshadow="2"
     inkscape:pageopacity="0.0"
     inkscape:pagecheckerboard="0"
     inkscape:deskcolor="#d1d1d1"
     showgrid="false"
     inkscape:zoom="0.89560659"
     inkscape:cx="290.86432"
     inkscape:cy="243.41045"
     inkscape:window-width="1500"
     inkscape:window-height="696"
     inkscape:window-x="0"
     inkscape:window-y="38"
     inkscape:window-maximized="0"
     inkscape:current-layer="svg343" />
  <text
     xml:space="preserve"
     style="font-style:normal;font-variant:normal;font-weight:normal;font-stretch:normal;font-size:7.12282px;font-family:'Orator Std';-inkscape-font-specification:'Orator Std';letter-spacing:-10px;fill:#383838;fill-opacity:1;stroke-width:600;stroke-dasharray:none"
     x="262.73227"
     y="86.236832"
     id="text485"><tspan
       sodipodi:role="line"
       style="font-style:normal;font-variant:normal;font-weight:normal;font-stretch:normal;font-size:50.6511px;font-family:'Orator Std';-inkscape-font-specification:'Orator Std';font-variant-ligatures:normal;font-variant-caps:normal;font-variant-numeric:normal;font-variant-east-asian:normal;fill:#383838;fill-opacity:1;stroke-width:600;stroke-dasharray:none"
       x="262.73227"
       y="86.236832"
       id="tspan4131">⟨qu<tspan
   id="tspan2762">antum|geometry</tspan>⟩</tspan></text>
  <rect
     style="fill:none;stroke:#777777;stroke-width:5.79665;stroke-dasharray:none;stroke-opacity:1"
     id="rect605"
     width="599.25824"
     height="207.69443"
     x="49.37088"
     y="18.652786" />
  <g
     id="g167"
     transform="matrix(0.87223279,0,0,0.86066909,78.931206,46.562613)">
    <g
       id="a" />
    <g
       id="b">
      <g
         id="c">
        <g
           id="g124">
          <g
             id="g70">
            <path
               class="d"
               d="m 113.68,14.09 v 0 c 0.07,0.05 0.04,0.02 0,0 z"
               id="path64"
               style="fill:none" />
            <path
               d="m 113.68,14.09 v 0 c 0,0 -0.07,-0.04 0,0 z"
               id="path66" />
            <path
               class="f"
               d="M 113.68,14.09 C 79.07,44.52 90.72,39.67 54.13,16.21 L 0,63.66 c 0,0 49.11,-33.73 55.85,-35.08 4.32,2.49 18.23,12.23 25.97,12.2 -5.4,6.3 -20.53,14.07 -34.86,26.46 0,0 50.18,-23.33 66.76,-38.6 0.12,-1.01 12.79,2.56 27.02,-4.08 -4.63,4.43 -32.22,27.68 -36.9,32.84 22.54,-11.85 46.76,-26.77 67.29,-47.56 -2.41,2.91 -21.37,44.73 -21.64,44.38 3.78,-0.19 16.81,-6.2 17.03,-9.07 0.3,-3.93 11.54,-42.24 11.74,-45.11 -16.31,-1.51 -30.77,32.76 -64.58,14.04 z"
               id="path68"
               style="fill:#383838" />
          </g>
          <g
             id="g122">
            <path
               class="g"
               d="M 1.88,82.16 H 16 v 4.82 H 6.77 v 4.68 H 16 v 4.73 H 6.77 v 6.8 H 16 v 4.83 H 1.88 Z m 7.93,-8.89 h 5.68 L 9.06,80.16 H 5.61 Z"
               id="path72"
               style="fill:#777777" />
            <path
               class="g"
               d="m 44.35,86.7 -3.44,3.28 c -2.34,-2.48 -4.98,-3.71 -7.9,-3.71 -2.47,0 -4.55,0.84 -6.24,2.53 -1.69,1.69 -2.54,3.77 -2.54,6.25 0,1.72 0.37,3.25 1.12,4.59 0.75,1.34 1.81,2.39 3.18,3.15 1.37,0.76 2.89,1.14 4.57,1.14 1.43,0 2.73,-0.27 3.92,-0.8 1.18,-0.53 2.48,-1.5 3.9,-2.91 l 3.34,3.48 c -1.91,1.86 -3.71,3.16 -5.41,3.88 -1.7,0.72 -3.64,1.08 -5.82,1.08 -4.02,0 -7.31,-1.27 -9.87,-3.82 -2.56,-2.55 -3.84,-5.82 -3.84,-9.8 0,-2.58 0.58,-4.87 1.75,-6.87 1.17,-2 2.84,-3.62 5.01,-4.83 2.17,-1.22 4.51,-1.83 7.02,-1.83 2.13,0 4.19,0.45 6.16,1.35 1.97,0.9 3.68,2.18 5.11,3.84 z"
               id="path74"
               style="fill:#777777" />
            <path
               class="g"
               d="m 60.86,81.51 c 3.66,0 6.8,1.32 9.44,3.97 2.63,2.65 3.95,5.88 3.95,9.69 0,3.81 -1.3,6.97 -3.9,9.58 -2.6,2.61 -5.75,3.92 -9.45,3.92 -3.7,0 -7.11,-1.34 -9.67,-4.03 -2.57,-2.68 -3.85,-5.87 -3.85,-9.56 0,-2.47 0.6,-4.75 1.79,-6.82 1.2,-2.07 2.84,-3.72 4.93,-4.93 2.09,-1.21 4.35,-1.82 6.76,-1.82 z m -0.05,4.82 c -2.39,0 -4.41,0.83 -6.04,2.5 -1.63,1.66 -2.45,3.78 -2.45,6.35 0,2.86 1.03,5.12 3.08,6.79 1.6,1.3 3.43,1.95 5.49,1.95 2.33,0 4.32,-0.84 5.96,-2.53 1.64,-1.69 2.46,-3.77 2.46,-6.24 0,-2.47 -0.83,-4.54 -2.48,-6.25 -1.65,-1.71 -3.67,-2.56 -6.04,-2.56 z"
               id="path76"
               style="fill:#777777" />
            <path
               class="g"
               d="m 78.89,82.16 h 4.92 v 21.16 h 7.17 v 4.69 H 78.89 V 82.15 Z"
               id="path78"
               style="fill:#777777" />
            <path
               class="g"
               d="m 94.75,82.16 h 14.12 v 4.82 h -9.23 v 4.68 h 9.23 v 4.73 h -9.23 v 6.8 h 9.23 v 4.83 H 94.75 Z"
               id="path80"
               style="fill:#777777" />
            <path
               class="g"
               d="m 129.32,82.16 h 5.83 c 3.76,0 6.55,0.47 8.38,1.4 1.83,0.93 3.33,2.45 4.51,4.54 1.18,2.1 1.77,4.55 1.77,7.35 0,1.99 -0.33,3.82 -0.99,5.49 -0.66,1.67 -1.58,3.06 -2.74,4.16 -1.16,1.1 -2.43,1.86 -3.79,2.29 -1.36,0.42 -3.71,0.63 -7.06,0.63 h -5.92 V 82.16 Z m 4.89,4.75 v 16.31 h 2.29 c 2.25,0 3.88,-0.26 4.9,-0.77 1.01,-0.52 1.84,-1.38 2.49,-2.6 0.64,-1.22 0.97,-2.72 0.97,-4.5 0,-2.75 -0.77,-4.87 -2.3,-6.39 -1.38,-1.36 -3.6,-2.04 -6.66,-2.04 h -1.67 z"
               id="path82"
               style="fill:#777777" />
            <path
               class="g"
               d="m 154.53,82.16 h 14.12 v 4.82 h -9.23 v 4.68 h 9.23 v 4.73 h -9.23 v 6.8 h 9.23 v 4.83 h -14.12 z"
               id="path84"
               style="fill:#777777" />
            <path
               class="e"
               d="m 1.85,120.16 h 5.22 c 2.82,0 4.86,0.26 6.11,0.78 1.25,0.52 2.23,1.37 2.95,2.53 0.72,1.17 1.08,2.56 1.08,4.19 0,1.8 -0.47,3.3 -1.41,4.5 -0.94,1.2 -2.22,2.03 -3.84,2.5 -0.95,0.27 -2.68,0.4 -5.19,0.4 v 10.95 H 1.85 v -25.86 z m 4.92,10.11 h 1.56 c 1.23,0 2.09,-0.09 2.57,-0.26 0.48,-0.18 0.86,-0.47 1.13,-0.87 0.28,-0.41 0.41,-0.9 0.41,-1.47 0,-1 -0.39,-1.73 -1.16,-2.19 -0.56,-0.34 -1.61,-0.51 -3.13,-0.51 H 6.76 v 5.31 z"
               id="path86"
               style="fill:#e53135" />
            <path
               class="e"
               d="m 22.52,120.16 h 4.99 v 9.76 h 8.63 v -9.76 h 4.97 v 25.86 h -4.97 v -11.34 h -8.63 v 11.34 h -4.99 z"
               id="path88"
               style="fill:#e53135" />
            <path
               class="e"
               d="m 45.7,120.16 h 5.28 l 4.82,9.3 4.8,-9.3 h 5.22 l -7.57,14.66 v 11.2 h -4.96 v -11.2 l -7.6,-14.66 z"
               id="path90"
               style="fill:#e53135" />
            <path
               class="e"
               d="m 83.95,123.67 -3.65,3.22 c -1.28,-1.78 -2.58,-2.67 -3.91,-2.67 -0.65,0 -1.17,0.17 -1.58,0.52 -0.41,0.35 -0.62,0.74 -0.62,1.17 0,0.43 0.15,0.84 0.44,1.23 0.4,0.52 1.6,1.62 3.61,3.32 1.88,1.57 3.02,2.56 3.42,2.97 1,1.01 1.71,1.97 2.12,2.89 0.42,0.92 0.62,1.92 0.62,3.01 0,2.12 -0.73,3.87 -2.2,5.26 -1.47,1.38 -3.38,2.07 -5.74,2.07 -1.84,0 -3.45,-0.45 -4.81,-1.35 -1.37,-0.9 -2.54,-2.32 -3.51,-4.25 l 4.14,-2.5 c 1.24,2.29 2.68,3.43 4.3,3.43 0.85,0 1.56,-0.25 2.13,-0.74 0.58,-0.49 0.86,-1.06 0.86,-1.7 0,-0.59 -0.22,-1.17 -0.65,-1.76 -0.43,-0.59 -1.39,-1.48 -2.87,-2.69 -2.82,-2.3 -4.64,-4.07 -5.46,-5.32 -0.82,-1.25 -1.23,-2.49 -1.23,-3.74 0,-1.79 0.68,-3.33 2.05,-4.61 1.37,-1.28 3.05,-1.92 5.06,-1.92 1.29,0 2.52,0.3 3.69,0.9 1.17,0.6 2.43,1.69 3.79,3.27 z"
               id="path92"
               style="fill:#e53135" />
            <path
               class="e"
               d="m 89.26,120.16 h 4.89 v 25.86 h -4.89 z"
               id="path94"
               style="fill:#e53135" />
            <path
               class="e"
               d="m 122.38,142.24 4.5,5.82 h -5.83 l -2.29,-2.94 c -1.89,1.04 -4,1.55 -6.32,1.55 -3.88,0 -7.11,-1.34 -9.68,-4.02 -2.57,-2.68 -3.85,-5.87 -3.85,-9.57 0,-2.47 0.6,-4.74 1.79,-6.81 1.2,-2.07 2.84,-3.71 4.93,-4.93 2.09,-1.22 4.34,-1.83 6.74,-1.83 3.67,0 6.82,1.32 9.45,3.97 2.63,2.65 3.95,5.88 3.95,9.69 0,3.5 -1.14,6.53 -3.41,9.07 z m -3.07,-3.97 c 1.04,-1.55 1.56,-3.26 1.56,-5.13 0,-2.45 -0.83,-4.53 -2.48,-6.24 -1.65,-1.71 -3.65,-2.57 -6,-2.57 -2.35,0 -4.44,0.83 -6.07,2.5 -1.63,1.66 -2.45,3.78 -2.45,6.35 0,2.86 1.03,5.12 3.08,6.79 1.61,1.3 3.43,1.95 5.48,1.95 1.17,0 2.28,-0.23 3.31,-0.69 l -4.63,-5.96 h 5.87 l 2.32,3 z"
               id="path96"
               style="fill:#e53135" />
            <path
               class="e"
               d="m 130.77,120.16 h 4.94 v 16.72 c 0,1.44 0.13,2.46 0.38,3.06 0.25,0.6 0.67,1.07 1.25,1.43 0.58,0.36 1.28,0.54 2.1,0.54 0.87,0 1.61,-0.2 2.24,-0.6 0.63,-0.4 1.06,-0.91 1.3,-1.52 0.24,-0.61 0.36,-1.79 0.36,-3.52 v -16.11 h 4.94 v 15.42 c 0,2.6 -0.15,4.41 -0.44,5.41 -0.29,1.01 -0.85,1.98 -1.68,2.92 -0.83,0.94 -1.78,1.63 -2.86,2.08 -1.08,0.45 -2.33,0.68 -3.76,0.68 -1.87,0 -3.51,-0.43 -4.9,-1.29 -1.39,-0.86 -2.38,-1.94 -2.98,-3.23 -0.6,-1.29 -0.9,-3.48 -0.9,-6.57 v -15.42 z"
               id="path98"
               style="fill:#e53135" />
            <path
               class="e"
               d="m 154.52,120.16 h 14.12 v 4.82 h -9.23 v 4.68 h 9.23 v 4.73 h -9.23 v 6.8 h 9.23 v 4.83 h -14.12 z"
               id="path100"
               style="fill:#e53135" />
            <path
               class="e"
               d="m 0.97,158.06 h 4.05 c 2.61,0 4.55,0.32 5.82,0.97 1.27,0.65 2.31,1.7 3.13,3.16 0.82,1.46 1.23,3.16 1.23,5.1 0,1.38 -0.23,2.66 -0.69,3.82 -0.46,1.16 -1.09,2.12 -1.9,2.89 -0.81,0.76 -1.69,1.29 -2.63,1.59 -0.94,0.29 -2.58,0.44 -4.9,0.44 H 0.97 v -17.96 z m 3.39,3.3 v 11.33 h 1.59 c 1.56,0 2.7,-0.18 3.4,-0.54 0.7,-0.36 1.28,-0.96 1.73,-1.81 0.45,-0.85 0.67,-1.89 0.67,-3.13 0,-1.91 -0.53,-3.38 -1.6,-4.44 -0.96,-0.95 -2.5,-1.42 -4.63,-1.42 H 4.36 Z"
               id="path102"
               style="fill:#e53135" />
            <path
               class="e"
               d="m 18.48,158.06 h 9.8 v 3.35 h -6.41 v 3.25 h 6.41 v 3.28 h -6.41 v 4.72 h 6.41 v 3.36 h -9.8 z"
               id="path104"
               style="fill:#e53135" />
            <path
               class="e"
               d="m 40.89,160.5 -2.53,2.23 c -0.89,-1.24 -1.79,-1.86 -2.72,-1.86 -0.45,0 -0.81,0.12 -1.1,0.36 -0.29,0.24 -0.43,0.51 -0.43,0.81 0,0.3 0.1,0.59 0.31,0.85 0.28,0.36 1.11,1.13 2.51,2.31 1.3,1.09 2.09,1.78 2.37,2.06 0.69,0.7 1.18,1.37 1.47,2.01 0.29,0.64 0.43,1.34 0.43,2.09 0,1.47 -0.51,2.69 -1.53,3.65 -1.02,0.96 -2.35,1.44 -3.98,1.44 -1.28,0 -2.39,-0.31 -3.34,-0.94 -0.95,-0.63 -1.76,-1.61 -2.44,-2.95 l 2.87,-1.73 c 0.86,1.59 1.86,2.38 2.98,2.38 0.59,0 1.08,-0.17 1.48,-0.51 0.4,-0.34 0.6,-0.74 0.6,-1.18 0,-0.41 -0.15,-0.81 -0.45,-1.22 -0.3,-0.41 -0.97,-1.03 -1.99,-1.87 -1.96,-1.6 -3.22,-2.83 -3.79,-3.69 -0.57,-0.87 -0.86,-1.73 -0.86,-2.59 0,-1.25 0.47,-2.31 1.42,-3.2 0.95,-0.89 2.12,-1.34 3.51,-1.34 0.9,0 1.75,0.21 2.56,0.62 0.81,0.41 1.69,1.17 2.63,2.27 z"
               id="path106"
               style="fill:#e53135" />
            <path
               class="e"
               d="m 55.81,158.06 h 3.47 v 6.78 h 5.99 v -6.78 h 3.45 v 17.96 h -3.45 v -7.87 h -5.99 v 7.87 h -3.47 z"
               id="path108"
               style="fill:#e53135" />
            <path
               class="e"
               d="m 81.3,157.61 c 2.54,0 4.73,0.92 6.55,2.76 1.83,1.84 2.74,4.08 2.74,6.73 0,2.65 -0.9,4.84 -2.71,6.65 -1.8,1.81 -3.99,2.72 -6.57,2.72 -2.58,0 -4.93,-0.93 -6.72,-2.79 -1.78,-1.86 -2.68,-4.08 -2.68,-6.64 0,-1.72 0.41,-3.3 1.25,-4.74 0.83,-1.44 1.97,-2.58 3.43,-3.42 1.45,-0.84 3.02,-1.26 4.7,-1.26 z m -0.04,3.34 c -1.66,0 -3.06,0.58 -4.19,1.73 -1.13,1.16 -1.7,2.62 -1.7,4.41 0,1.99 0.71,3.56 2.14,4.71 1.11,0.9 2.38,1.35 3.81,1.35 1.62,0 3,-0.59 4.14,-1.76 1.14,-1.17 1.71,-2.62 1.71,-4.33 0,-1.71 -0.57,-3.16 -1.72,-4.34 -1.15,-1.18 -2.55,-1.78 -4.19,-1.78 z"
               id="path110"
               style="fill:#e53135" />
            <path
               class="e"
               d="m 93.7,158.06 h 3.43 v 11.61 c 0,1 0.09,1.71 0.26,2.12 0.18,0.41 0.46,0.75 0.87,0.99 0.4,0.25 0.89,0.37 1.46,0.37 0.6,0 1.12,-0.14 1.56,-0.42 0.44,-0.28 0.74,-0.63 0.9,-1.05 0.17,-0.43 0.25,-1.24 0.25,-2.45 v -11.19 h 3.43 v 10.71 c 0,1.81 -0.1,3.06 -0.3,3.76 -0.2,0.7 -0.59,1.38 -1.17,2.03 -0.57,0.65 -1.23,1.13 -1.98,1.45 -0.75,0.31 -1.62,0.47 -2.61,0.47 -1.3,0 -2.43,-0.3 -3.4,-0.9 -0.96,-0.6 -1.65,-1.35 -2.07,-2.25 -0.42,-0.9 -0.62,-2.42 -0.62,-4.56 v -10.71 z"
               id="path112"
               style="fill:#e53135" />
            <path
               class="e"
               d="m 126.33,161.22 -2.39,2.28 c -1.63,-1.72 -3.46,-2.58 -5.49,-2.58 -1.72,0 -3.16,0.59 -4.34,1.76 -1.17,1.17 -1.76,2.62 -1.76,4.34 0,1.2 0.26,2.26 0.78,3.19 0.52,0.93 1.26,1.66 2.21,2.19 0.95,0.53 2.01,0.79 3.17,0.79 0.99,0 1.9,-0.19 2.72,-0.56 0.82,-0.37 1.72,-1.04 2.71,-2.02 l 2.32,2.42 c -1.33,1.29 -2.58,2.19 -3.76,2.69 -1.18,0.5 -2.53,0.75 -4.04,0.75 -2.79,0 -5.08,-0.88 -6.85,-2.65 -1.78,-1.77 -2.67,-4.04 -2.67,-6.81 0,-1.79 0.4,-3.38 1.21,-4.77 0.81,-1.39 1.97,-2.51 3.48,-3.36 1.51,-0.85 3.13,-1.27 4.88,-1.27 1.48,0 2.91,0.31 4.28,0.94 1.37,0.63 2.55,1.52 3.55,2.67 z"
               id="path114"
               style="fill:#e53135" />
            <path
               class="e"
               d="m 129.31,158.06 h 3.47 v 6.78 h 5.99 v -6.78 h 3.45 v 17.96 h -3.45 v -7.87 h -5.99 v 7.87 h -3.47 z"
               id="path116"
               style="fill:#e53135" />
            <path
               class="e"
               d="m 146.34,158.06 h 9.8 v 3.35 h -6.41 v 3.25 h 6.41 v 3.28 h -6.41 v 4.72 h 6.41 v 3.36 h -9.8 z"
               id="path118"
               style="fill:#e53135" />
            <path
               class="e"
               d="m 168.75,160.5 -2.53,2.23 c -0.89,-1.24 -1.79,-1.86 -2.71,-1.86 -0.45,0 -0.82,0.12 -1.1,0.36 -0.29,0.24 -0.43,0.51 -0.43,0.81 0,0.3 0.1,0.59 0.31,0.85 0.28,0.36 1.11,1.13 2.51,2.31 1.3,1.09 2.1,1.78 2.37,2.06 0.69,0.7 1.18,1.37 1.47,2.01 0.29,0.64 0.43,1.34 0.43,2.09 0,1.47 -0.51,2.69 -1.53,3.65 -1.02,0.96 -2.35,1.44 -3.98,1.44 -1.28,0 -2.39,-0.31 -3.34,-0.94 -0.95,-0.63 -1.76,-1.61 -2.44,-2.95 l 2.87,-1.73 c 0.86,1.59 1.86,2.38 2.98,2.38 0.59,0 1.08,-0.17 1.48,-0.51 0.4,-0.34 0.6,-0.74 0.6,-1.18 0,-0.41 -0.15,-0.81 -0.45,-1.22 -0.3,-0.41 -0.97,-1.03 -1.99,-1.87 -1.96,-1.6 -3.22,-2.83 -3.79,-3.69 -0.57,-0.87 -0.86,-1.73 -0.86,-2.59 0,-1.25 0.47,-2.31 1.42,-3.2 0.95,-0.89 2.12,-1.34 3.51,-1.34 0.9,0 1.75,0.21 2.56,0.62 0.81,0.41 1.69,1.17 2.63,2.27 z"
               id="path120"
               style="fill:#e53135" />
          </g>
        </g>
      </g>
    </g>
    <path
       style="fill:#d24235;fill-opacity:1;stroke:#777777;stroke-width:0;stroke-dasharray:none"
       d="m 38.717083,166.57789 v -12.46501 h 3.45172 c 4.187661,0 6.30358,0.23919 7.691246,0.86944 2.214319,1.00569 3.54334,3.05118 3.727419,5.73683 0.215511,3.14424 -1.161653,5.52023 -3.94259,6.80205 -1.275554,0.58794 -1.539747,0.6381 -3.788684,0.7193 l -2.417515,0.0873 v 5.35755 5.35755 h -2.360798 -2.360798 z m 9.203915,-3.08805 c 1.594681,-0.83022 1.594681,-3.56006 0,-4.40648 -0.423018,-0.22453 -1.205347,-0.34814 -2.546465,-0.40234 l -1.935854,-0.0782 v 2.69027 2.69027 l 1.935854,-0.0878 c 1.300316,-0.059 2.136317,-0.19215 2.546465,-0.40568 z"
       id="path397"
       transform="matrix(1.0186248,0,0,1.0323107,-37.530386,-38.841986)" />
    <path
       style="fill:#d24235;fill-opacity:1;stroke:#777777;stroke-width:0;stroke-dasharray:none"
       d="m 59.114376,166.57789 v -12.46501 h 2.360798 2.360798 v 4.72159 4.7216 h 4.249435 4.249436 v -4.7216 -4.72159 h 2.360798 2.360798 v 12.46501 12.46501 h -2.360798 -2.360798 v -5.47705 -5.47705 h -4.249436 -4.249435 v 5.47705 5.47705 h -2.360798 -2.360798 z"
       id="path1748"
       transform="matrix(1.0186248,0,0,1.0323107,-37.530386,-38.841986)" />
    <path
       style="fill:#d24235;fill-opacity:1;stroke:#777777;stroke-width:0;stroke-dasharray:none"
       d="m 89.332587,173.67608 v -5.36681 l -3.682844,-7.00034 c -2.025565,-3.85019 -3.682845,-7.04438 -3.682845,-7.0982 0,-0.0538 1.094696,-0.0979 2.432658,-0.0979 h 2.432657 l 2.214816,4.24111 c 1.218148,2.33261 2.311912,4.36942 2.430586,4.52625 0.175424,0.23181 0.657209,-0.56122 2.576568,-4.24111 l 2.360798,-4.52625 h 2.408013 c 1.324406,0 2.408016,0.0285 2.408016,0.0634 0,0.0349 -1.657282,3.22941 -3.682846,7.09893 l -3.682845,7.03549 v 5.36609 5.36608 h -2.266366 -2.266366 z"
       id="path1750"
       transform="matrix(1.0186248,0,0,1.0323107,-37.530386,-38.841986)" />
    <path
       style="fill:#d24235;fill-opacity:1;stroke:#777777;stroke-width:0;stroke-dasharray:none"
       d="m 109.9273,179.41574 c -1.14831,-0.24223 -2.59544,-0.97586 -3.56934,-1.80948 -0.93246,-0.79816 -2.54875,-3.10574 -2.32915,-3.32534 0.0813,-0.0813 0.95035,-0.62202 1.93133,-1.2017 l 1.78359,-1.05395 0.28484,0.43978 c 0.61702,0.95267 1.83313,2.11922 2.5512,2.44721 1.44886,0.6618 2.98339,0.35367 3.94806,-0.79277 0.4619,-0.54895 0.51947,-0.74954 0.44313,-1.54403 -0.11548,-1.20188 -0.63139,-1.82375 -3.55818,-4.28907 -5.12076,-4.31334 -6.32072,-5.97015 -6.29854,-8.69646 0.0138,-1.69321 0.52781,-2.8537 1.814,-4.09534 1.28436,-1.23987 2.61524,-1.81477 4.42424,-1.91113 2.60782,-0.13891 4.38735,0.57178 6.58924,2.63154 l 1.2153,1.13685 -1.70879,1.50469 -1.70878,1.50469 -0.78564,-0.83496 c -1.12081,-1.19119 -2.21486,-1.7011 -3.40459,-1.58678 -0.76113,0.0731 -1.05117,0.20756 -1.47761,0.68483 -1.09431,1.22475 -0.7037,1.83397 3.4648,5.40382 3.65983,3.13423 4.6075,4.12435 5.4193,5.662 0.44964,0.85168 0.50066,1.15041 0.50066,2.93139 0,1.92102 -0.0212,2.02149 -0.67696,3.21069 -0.81272,1.47381 -2.13641,2.62176 -3.69644,3.20567 -1.25834,0.471 -3.82309,0.65896 -5.15567,0.37785 z"
       id="path1752"
       transform="matrix(1.0186248,0,0,1.0323107,-37.530386,-38.841986)" />
    <path
       style="fill:#d24235;fill-opacity:1;stroke:#777777;stroke-width:0;stroke-dasharray:none"
       d="m 124.65012,166.57789 v -12.46501 h 2.26637 2.26636 v 12.46501 12.46501 h -2.26636 -2.26637 z"
       id="path1754"
       transform="matrix(1.0186248,0,0,1.0323107,-37.530386,-38.841986)" />
    <path
       style="fill:#d24235;fill-opacity:1;stroke:#777777;stroke-width:0;stroke-dasharray:none"
       d="m 154.60375,179.51506 c -0.61024,-0.77906 -1.13004,-1.41648 -1.1551,-1.41648 -0.0251,0 -0.51751,0.21606 -1.09431,0.48013 -2.43808,1.11619 -6.35376,1.31429 -9.10113,0.46044 -2.22661,-0.69201 -3.4501,-1.45488 -5.28819,-3.29733 -2.74024,-2.74675 -3.87171,-5.4248 -3.87171,-9.16393 0,-3.47451 1.13981,-6.37245 3.47424,-8.83318 2.49861,-2.63378 5.45611,-3.99665 9.01789,-4.15558 2.52397,-0.11263 4.29892,0.25315 6.44844,1.32892 2.06606,1.03399 4.6425,3.55759 5.67587,5.55945 2.28879,4.43389 1.86719,9.99827 -1.04953,13.85192 -0.89306,1.17994 -1.02191,0.82014 1.41051,3.93885 0.93992,1.20511 1.79162,2.29735 1.89265,2.42719 0.14508,0.18644 -0.3876,0.23608 -2.5332,0.23608 h -2.71691 z m -5.0236,-4.66298 c 0.36356,-0.10927 0.73253,-0.26417 0.81994,-0.34422 0.0874,-0.08 -0.78373,-1.33648 -1.93586,-2.79206 -1.15212,-1.45559 -2.09477,-2.69715 -2.09477,-2.75903 0,-0.0619 1.21109,-0.1091 2.69131,-0.10492 l 2.69131,0.008 0.84989,1.13898 c 1.44637,1.93838 1.41286,1.93072 2.09261,0.47813 1.60986,-3.44019 0.96104,-7.44704 -1.62456,-10.03264 -3.70807,-3.70807 -10.13273,-3.08624 -12.93675,1.25211 -1.02703,1.58903 -1.3792,3.0853 -1.2884,5.47418 0.0654,1.72089 0.14744,2.11283 0.67906,3.24446 1.70824,3.63618 6.17067,5.60527 10.05622,4.43741 z"
       id="path1756"
       transform="matrix(1.0186248,0,0,1.0323107,-37.530386,-38.841986)" />
    <path
       style="fill:#d24235;fill-opacity:1;stroke:#777777;stroke-width:0;stroke-dasharray:none"
       d="m 37.961628,199.4402 v -8.68774 l 2.030286,0.005 c 5.947582,0.0143 8.306372,0.81802 10.04598,3.4231 2.046175,3.06417 2.132482,7.53626 0.203457,10.54238 -1.716864,2.6755 -3.803054,3.38727 -9.966141,3.40025 l -2.313582,0.005 z m 7.418067,5.27683 c 2.165988,-0.6015 3.484333,-3.43846 2.970103,-6.39138 -0.519944,-2.98574 -2.100369,-4.23414 -5.682111,-4.48838 l -1.684238,-0.11955 v 5.59976 5.59977 l 1.841422,-0.001 c 1.012783,-5.9e-4 2.162453,-0.0902 2.554824,-0.19917 z"
       id="path1758"
       transform="matrix(1.0186248,0,0,1.0323107,-37.530386,-38.841986)" />
    <path
       style="fill:#d24235;fill-opacity:1;stroke:#777777;stroke-width:0;stroke-dasharray:none"
       d="m 55.148236,199.4402 v -8.68774 h 4.721595 4.721596 v 1.60534 1.60534 h -3.210685 -3.210685 v 1.60535 1.60534 h 3.210685 3.210685 v 1.51091 1.51091 h -3.210685 -3.210685 v 2.3608 2.3608 h 3.210685 3.210685 v 1.60534 1.60534 h -4.721596 -4.721595 z"
       id="path1760"
       transform="matrix(1.0186248,0,0,1.0323107,-37.530386,-38.841986)" />
    <path
       style="fill:#d24235;fill-opacity:1;stroke:#777777;stroke-width:0;stroke-dasharray:none"
       d="m 70.21812,208.25254 c -1.237591,-0.34941 -2.319003,-1.15136 -3.186841,-2.36328 l -0.739077,-1.03211 1.179899,-0.71874 c 0.648944,-0.3953 1.254172,-0.72174 1.344951,-0.72541 0.09078,-0.004 0.49156,0.36427 0.890623,0.81763 0.889634,1.01067 1.620208,1.33668 2.677654,1.19484 1.015774,-0.13624 1.649289,-0.81865 1.649289,-1.77659 0,-0.74595 -0.14273,-0.90372 -4.105265,-4.53788 -2.169475,-1.98969 -2.747794,-2.92888 -2.747794,-4.4624 0,-3.18958 3.663827,-5.1795 6.900088,-3.74762 0.441572,0.19537 1.251114,0.77306 1.798982,1.28375 l 0.996124,0.92853 -1.168232,0.96737 -1.168232,0.96737 -0.648262,-0.64826 c -0.73935,-0.73935 -1.316597,-1.00319 -2.194889,-1.00319 -0.735379,0 -1.439797,0.59175 -1.439797,1.2095 0,0.64302 0.501303,1.18995 3.219413,3.51241 2.668219,2.27983 3.458026,3.33898 3.676969,4.93088 0.160929,1.1701 -0.274625,2.68049 -1.03897,3.60289 -1.194609,1.44164 -3.878625,2.17006 -5.896633,1.60031 z"
       id="path1762"
       transform="matrix(1.0186248,0,0,1.0323107,-37.530386,-38.841986)" />
    <path
       style="fill:#d24235;fill-opacity:1;stroke:#777777;stroke-width:0;stroke-dasharray:none"
       d="m 91.787817,199.4402 v -8.68774 h 1.605343 1.605342 v 3.30512 3.30511 h 3.021821 3.021817 v -3.30511 -3.30512 h 1.60535 1.60534 v 8.68774 8.68773 h -1.60534 -1.60535 v -3.87171 -3.87171 h -3.021817 -3.021821 v 3.87171 3.87171 H 93.39316 91.787817 Z"
       id="path1764"
       transform="matrix(1.0186248,0,0,1.0323107,-37.530386,-38.841986)" />
    <path
       style="fill:#d24235;fill-opacity:1;stroke:#777777;stroke-width:0;stroke-dasharray:none"
       d="m 114.92364,208.32461 c -3.30698,-0.71617 -5.94425,-3.0375 -6.8751,-6.05146 -0.56456,-1.82796 -0.64598,-2.94251 -0.32679,-4.47336 0.81142,-3.8916 3.74936,-6.68003 7.67908,-7.28829 3.79333,-0.58715 7.59508,1.48161 9.38749,5.1083 0.7097,1.43598 0.71168,1.44664 0.70792,3.8106 -0.003,2.00487 -0.0686,2.53208 -0.42384,3.41734 -0.88835,2.21364 -3.36065,4.51519 -5.57992,5.19455 -1.18312,0.36218 -3.53036,0.50722 -4.56884,0.28232 z m 4.37703,-3.50975 c 2.29394,-1.12232 3.63598,-3.9503 3.09881,-6.52985 -0.95338,-4.57818 -6.34933,-6.41122 -9.77154,-3.31946 -2.50673,2.26468 -2.47886,6.77983 0.0556,9.0051 1.77331,1.55699 4.45975,1.89972 6.61714,0.84421 z"
       id="path1766"
       transform="matrix(1.0186248,0,0,1.0323107,-37.530386,-38.841986)" />
    <path
       style="fill:#d24235;fill-opacity:1;stroke:#777777;stroke-width:0;stroke-dasharray:none"
       d="m 133.28771,208.31202 c -1.66966,-0.4212 -3.20711,-1.66065 -3.85956,-3.11148 -0.30303,-0.67385 -0.34599,-1.49497 -0.39772,-7.60177 l -0.058,-6.84631 h 1.50159 1.50158 l 0.0673,6.50199 c 0.0644,6.22264 0.0841,6.5249 0.45847,7.03518 0.48102,0.65569 1.49636,1.19362 2.25294,1.19362 0.75637,0 1.7718,-0.53784 2.25294,-1.19332 0.37491,-0.51075 0.39349,-0.80292 0.44759,-7.03518 l 0.0564,-6.50229 h 1.61075 1.61075 l -0.0618,6.75188 c -0.0586,6.3956 -0.0828,6.79724 -0.45953,7.61136 -0.93258,2.01552 -2.63672,3.15982 -4.91015,3.29709 -0.71632,0.0433 -1.62243,-0.002 -2.01357,-0.10077 z"
       id="path1768"
       transform="matrix(1.0186248,0,0,1.0323107,-37.530386,-38.841986)" />
    <path
       style="fill:#d24235;fill-opacity:1;stroke:#777777;stroke-width:0;stroke-dasharray:none"
       d="m 151.56322,208.39578 c -1.66778,-0.40298 -2.19443,-0.57463 -3.01651,-0.98319 -1.27199,-0.63216 -3.12924,-2.5343 -3.7273,-3.81739 -2.67868,-5.74691 0.67048,-12.09441 6.89175,-13.06161 2.82405,-0.43905 6.04349,0.51573 8.04181,2.38492 l 0.92605,0.86622 -1.05554,1.01435 -1.05554,1.01434 -0.77703,-0.63671 c -0.42737,-0.3502 -1.28103,-0.87029 -1.89702,-1.15576 -1.5315,-0.70975 -3.83941,-0.74589 -5.3131,-0.0832 -1.33088,0.59848 -2.73556,2.10917 -3.16592,3.40487 -0.52078,1.56793 -0.34599,3.80401 0.40149,5.1361 1.14,2.03163 3.48795,3.1809 6.01621,2.9448 1.48584,-0.13875 2.50279,-0.56736 3.80815,-1.60503 l 0.97819,-0.77758 0.98522,1.13725 c 0.56247,0.64927 0.91261,1.20535 0.81602,1.29596 -1.03322,0.96921 -2.91631,2.13356 -3.99365,2.46936 -1.22307,0.38121 -4.06397,0.64541 -4.86328,0.45228 z"
       id="path1770"
       transform="matrix(1.0186248,0,0,1.0323107,-37.530386,-38.841986)" />
    <path
       style="fill:#d24235;fill-opacity:1;stroke:#777777;stroke-width:0;stroke-dasharray:none"
       d="m 163.9338,199.4402 v -8.68774 h 1.60534 1.60534 v 3.30512 3.30511 h 3.02182 3.02182 v -3.30511 -3.30512 h 1.60535 1.60534 v 8.68774 8.68773 h -1.60534 -1.60535 v -3.87171 -3.87171 h -3.02182 -3.02182 v 3.87171 3.87171 h -1.60534 -1.60534 z"
       id="path1772"
       transform="matrix(1.0186248,0,0,1.0323107,-37.530386,-38.841986)" />
    <path
       style="fill:#d24235;fill-opacity:1;stroke:#777777;stroke-width:0;stroke-dasharray:none"
       d="m 171.29949,179.26684 c -1.59802,-0.41769 -2.70898,-1.08427 -3.89213,-2.33527 -1.92379,-2.03413 -2.15152,-3.61189 -2.15152,-14.90642 v -7.91227 h 2.3608 2.3608 l 0.005,8.82938 c 0.002,4.85616 0.0818,9.16276 0.17632,9.57022 0.32014,1.38033 1.27134,2.27491 2.69934,2.53867 1.90332,0.35157 3.61002,-0.37994 4.34667,-1.86303 0.41653,-0.83859 0.42296,-0.97099 0.48367,-9.96256 l 0.0615,-9.11268 h 2.25205 2.25206 v 9.03077 c 0,5.71584 -0.0756,9.43994 -0.20606,10.14544 -0.85142,4.60575 -5.69369,7.29888 -10.74804,5.97775 z"
       id="path1774"
       transform="matrix(1.0186248,0,0,1.0323107,-37.530386,-38.841986)" />
    <path
       style="fill:#d24235;fill-opacity:1;stroke:#777777;stroke-width:0;stroke-dasharray:none"
       d="m 188.67496,166.57789 v -12.46501 h 6.79909 6.7991 v 2.26636 2.26637 h -4.53273 -4.53273 v 2.3608 2.3608 h 4.53273 4.53273 v 2.17193 2.17193 h -4.53273 -4.53273 v 3.39955 3.39955 h 4.53273 4.53273 v 2.26637 2.26636 h -6.7991 -6.79909 z"
       id="path1776"
       transform="matrix(1.0186248,0,0,1.0323107,-37.530386,-38.841986)" />
    <path
       style="fill:#d24235;fill-opacity:1;stroke:#777777;stroke-width:0;stroke-dasharray:none"
       d="m 180.55381,199.4402 v -8.68774 h 4.7216 4.72159 v 1.60534 1.60534 h -3.11625 -3.11625 v 1.60535 1.60534 h 3.11625 3.11625 v 1.51091 1.51091 h -3.11625 -3.11625 v 2.3608 2.3608 h 3.11625 3.11625 v 1.60534 1.60534 h -4.72159 -4.7216 z"
       id="path1778"
       transform="matrix(1.0186248,0,0,1.0323107,-37.530386,-38.841986)" />
    <path
       style="fill:#d24235;fill-opacity:1;stroke:#777777;stroke-width:0;stroke-dasharray:none"
       d="m 195.84245,208.26013 c -1.54065,-0.4365 -2.95017,-1.56637 -3.65544,-2.93021 l -0.27229,-0.52656 1.28834,-0.77504 1.28835,-0.77505 0.58011,0.80779 c 1.16943,1.6284 3.15985,1.91027 4.22283,0.598 0.83529,-1.03119 0.33532,-1.86814 -2.64441,-4.42674 -2.43664,-2.09227 -3.17741,-2.93589 -3.71681,-4.23282 -0.55193,-1.32709 -0.25872,-2.78722 0.79362,-3.95204 1.06792,-1.18205 1.96787,-1.56996 3.63594,-1.56719 1.68348,0.003 2.64185,0.40076 4.06827,1.68933 l 0.93662,0.84611 -1.13318,1.02992 -1.13318,1.02993 -0.66102,-0.62831 c -0.85147,-0.80933 -1.33791,-1.0507 -2.1175,-1.0507 -0.9103,0 -1.47092,0.45643 -1.47092,1.19756 0,0.68002 0.68756,1.42909 3.56905,3.88838 1.73816,1.48347 2.57383,2.42849 2.9709,3.35965 0.37515,0.87977 0.32296,2.82551 -0.10021,3.73613 -0.44021,0.94728 -1.59035,2.06091 -2.5349,2.45443 -0.99159,0.41312 -2.87295,0.52243 -3.91417,0.22743 z"
       id="path1780"
       transform="matrix(1.0186248,0,0,1.0323107,-37.530386,-38.841986)" />
  </g>
  <text
     xml:space="preserve"
     style="font-style:normal;font-variant:normal;font-weight:normal;font-stretch:normal;font-size:7.12282px;font-family:'Orator Std';-inkscape-font-specification:'Orator Std';letter-spacing:-5px;word-spacing:-2px;fill:#383838;fill-opacity:1;stroke-width:600;stroke-dasharray:none"
     x="278.10806"
     y="194.87047"
     id="text485-9"><tspan
       sodipodi:role="line"
       style="font-style:normal;font-variant:normal;font-weight:normal;font-stretch:normal;font-size:35.6141px;font-family:'Orator Std';-inkscape-font-specification:'Orator Std';font-variant-ligatures:normal;font-variant-caps:normal;font-variant-numeric:normal;font-variant-east-asian:normal;fill:#383838;fill-opacity:1;stroke-width:600;stroke-dasharray:none"
       x="278.10806"
       y="194.87047"
       id="tspan4131-6">29 JUL &gt; 23 AUG 2024</tspan></text>
  <text
     xml:space="preserve"
     style="font-style:normal;font-variant:normal;font-weight:normal;font-stretch:normal;font-size:7.12282px;font-family:'Orator Std';-inkscape-font-specification:'Orator Std';letter-spacing:-2px;fill:#383838;fill-opacity:1;stroke-width:600;stroke-dasharray:none"
     x="302.26163"
     y="147.28069"
     id="text485-8"><tspan
       sodipodi:role="line"
       style="font-style:normal;font-variant:normal;font-weight:normal;font-stretch:normal;font-size:44.3199px;font-family:'Orator Std';-inkscape-font-specification:'Orator Std';font-variant-ligatures:normal;font-variant-caps:normal;font-variant-numeric:normal;font-variant-east-asian:normal;fill:#383838;fill-opacity:1;stroke-width:600;stroke-dasharray:none"
       x="302.26163"
       y="147.28069"
       id="tspan4131-9">LES HOUCHES</tspan></text>
</svg>
